<mxfile host="app.diagrams.net" agent="Mozilla/5.0 (Windows NT 10.0; Win64; x64) AppleWebKit/537.36 (KHTML, like Gecko) Chrome/131.0.0.0 Safari/537.36" version="25.0.3">
  <diagram name="第 1 页" id="ewu6AEvVSRHdwP8NrREl">
    <mxGraphModel dx="1235" dy="699" grid="0" gridSize="10" guides="1" tooltips="1" connect="1" arrows="1" fold="1" page="1" pageScale="1" pageWidth="827" pageHeight="1169" math="0" shadow="0">
      <root>
        <mxCell id="0" />
        <mxCell id="1" parent="0" />
        <mxCell id="vJw8gZ0kDSl8a8__D-2x-12" value="" style="rounded=0;whiteSpace=wrap;html=1;dashed=1;" vertex="1" parent="1">
          <mxGeometry x="175" y="110" width="510" height="250" as="geometry" />
        </mxCell>
        <mxCell id="vJw8gZ0kDSl8a8__D-2x-6" value="" style="rounded=0;whiteSpace=wrap;html=1;dashed=1;" vertex="1" parent="1">
          <mxGeometry x="335" y="130" width="190" height="100" as="geometry" />
        </mxCell>
        <mxCell id="vJw8gZ0kDSl8a8__D-2x-15" style="edgeStyle=orthogonalEdgeStyle;rounded=0;orthogonalLoop=1;jettySize=auto;html=1;" edge="1" parent="1" source="vJw8gZ0kDSl8a8__D-2x-1" target="vJw8gZ0kDSl8a8__D-2x-2">
          <mxGeometry relative="1" as="geometry" />
        </mxCell>
        <mxCell id="vJw8gZ0kDSl8a8__D-2x-18" style="rounded=0;orthogonalLoop=1;jettySize=auto;html=1;entryX=0;entryY=0.5;entryDx=0;entryDy=0;" edge="1" parent="1" target="vJw8gZ0kDSl8a8__D-2x-1">
          <mxGeometry relative="1" as="geometry">
            <mxPoint x="40" y="340" as="targetPoint" />
            <mxPoint x="120" y="300" as="sourcePoint" />
          </mxGeometry>
        </mxCell>
        <mxCell id="vJw8gZ0kDSl8a8__D-2x-1" value="模糊化接口" style="rounded=0;whiteSpace=wrap;html=1;" vertex="1" parent="1">
          <mxGeometry x="200" y="270" width="120" height="60" as="geometry" />
        </mxCell>
        <mxCell id="vJw8gZ0kDSl8a8__D-2x-16" style="edgeStyle=orthogonalEdgeStyle;rounded=0;orthogonalLoop=1;jettySize=auto;html=1;entryX=0;entryY=0.5;entryDx=0;entryDy=0;" edge="1" parent="1" source="vJw8gZ0kDSl8a8__D-2x-2" target="vJw8gZ0kDSl8a8__D-2x-5">
          <mxGeometry relative="1" as="geometry" />
        </mxCell>
        <mxCell id="vJw8gZ0kDSl8a8__D-2x-2" value="模糊推理" style="rounded=0;whiteSpace=wrap;html=1;" vertex="1" parent="1">
          <mxGeometry x="370" y="270" width="120" height="60" as="geometry" />
        </mxCell>
        <mxCell id="vJw8gZ0kDSl8a8__D-2x-13" style="edgeStyle=orthogonalEdgeStyle;rounded=0;orthogonalLoop=1;jettySize=auto;html=1;entryX=0.5;entryY=0;entryDx=0;entryDy=0;" edge="1" parent="1" source="vJw8gZ0kDSl8a8__D-2x-3" target="vJw8gZ0kDSl8a8__D-2x-2">
          <mxGeometry relative="1" as="geometry" />
        </mxCell>
        <mxCell id="vJw8gZ0kDSl8a8__D-2x-3" value="专家经验库" style="rounded=0;whiteSpace=wrap;html=1;" vertex="1" parent="1">
          <mxGeometry x="344" y="140" width="70" height="60" as="geometry" />
        </mxCell>
        <mxCell id="vJw8gZ0kDSl8a8__D-2x-14" style="edgeStyle=orthogonalEdgeStyle;rounded=0;orthogonalLoop=1;jettySize=auto;html=1;entryX=0.5;entryY=0;entryDx=0;entryDy=0;" edge="1" parent="1" source="vJw8gZ0kDSl8a8__D-2x-4" target="vJw8gZ0kDSl8a8__D-2x-2">
          <mxGeometry relative="1" as="geometry" />
        </mxCell>
        <mxCell id="vJw8gZ0kDSl8a8__D-2x-4" value="推理规则" style="rounded=0;whiteSpace=wrap;html=1;" vertex="1" parent="1">
          <mxGeometry x="450" y="140" width="60" height="60" as="geometry" />
        </mxCell>
        <mxCell id="vJw8gZ0kDSl8a8__D-2x-17" style="edgeStyle=orthogonalEdgeStyle;rounded=0;orthogonalLoop=1;jettySize=auto;html=1;" edge="1" parent="1" source="vJw8gZ0kDSl8a8__D-2x-5">
          <mxGeometry relative="1" as="geometry">
            <mxPoint x="730" y="300" as="targetPoint" />
          </mxGeometry>
        </mxCell>
        <mxCell id="vJw8gZ0kDSl8a8__D-2x-5" value="解模糊接口" style="rounded=0;whiteSpace=wrap;html=1;" vertex="1" parent="1">
          <mxGeometry x="540" y="270" width="120" height="60" as="geometry" />
        </mxCell>
        <mxCell id="vJw8gZ0kDSl8a8__D-2x-10" value="知识库" style="text;strokeColor=none;align=center;fillColor=none;html=1;verticalAlign=middle;whiteSpace=wrap;rounded=0;" vertex="1" parent="1">
          <mxGeometry x="400" y="200" width="60" height="30" as="geometry" />
        </mxCell>
        <mxCell id="vJw8gZ0kDSl8a8__D-2x-19" value="输入" style="text;strokeColor=none;align=center;fillColor=none;html=1;verticalAlign=middle;whiteSpace=wrap;rounded=0;" vertex="1" parent="1">
          <mxGeometry x="115" y="270" width="60" height="30" as="geometry" />
        </mxCell>
        <mxCell id="vJw8gZ0kDSl8a8__D-2x-20" value="输出" style="text;strokeColor=none;align=center;fillColor=none;html=1;verticalAlign=middle;whiteSpace=wrap;rounded=0;" vertex="1" parent="1">
          <mxGeometry x="660" y="270" width="60" height="30" as="geometry" />
        </mxCell>
      </root>
    </mxGraphModel>
  </diagram>
</mxfile>
